<svg width="56" height="56" viewBox="0 0 56 56" fill="none" xmlns="http://www.w3.org/2000/svg">
<path d="M41.1834 14.8167C39.4563 13.0782 37.4023 11.6987 35.1396 10.7576C32.877 9.81649 30.4505 9.33245 28 9.33334C17.6867 9.33334 9.35669 17.6867 9.35669 28C9.35669 38.3133 17.6867 46.6667 28 46.6667C36.7034 46.6667 43.96 40.7167 46.0367 32.6667H41.1834C40.2222 35.3956 38.4378 37.7589 36.0765 39.4306C33.7152 41.1024 30.8932 42.0001 28 42C20.2767 42 14 35.7233 14 28C14 20.2767 20.2767 14 28 14C31.8734 14 35.3267 15.61 37.8467 18.1533L30.3334 25.6667H46.6667V9.33334L41.1834 14.8167Z" fill="#F5F5F5"/>
</svg>
